<mxfile host="app.diagrams.net" agent="Mozilla/5.0 (Windows NT 10.0; Win64; x64; rv:140.0) Gecko/20100101 Firefox/140.0" version="27.2.0">
  <diagram name="Strona-1" id="LE74Gdnp2hLeJ4BVk9jC">
    <mxGraphModel dx="860" dy="647" grid="1" gridSize="10" guides="1" tooltips="1" connect="1" arrows="1" fold="1" page="1" pageScale="1" pageWidth="827" pageHeight="1169" math="0" shadow="0">
      <root>
        <mxCell id="0" />
        <mxCell id="1" parent="0" />
        <mxCell id="ZS0UVqJl61d2Koyx9BBH-2" style="edgeStyle=orthogonalEdgeStyle;rounded=0;orthogonalLoop=1;jettySize=auto;html=1;startArrow=classic;startFill=1;" edge="1" parent="1" source="F_MHXSZo8XpEC62Zlxpp-1" target="F_MHXSZo8XpEC62Zlxpp-6">
          <mxGeometry relative="1" as="geometry" />
        </mxCell>
        <mxCell id="F_MHXSZo8XpEC62Zlxpp-1" value="Komputer fizyczny/maszyna wirtualna&lt;br&gt;&lt;div&gt;(ofiara)&lt;/div&gt;" style="rounded=0;whiteSpace=wrap;html=1;fillColor=#76608a;fontColor=#ffffff;strokeColor=#432D57;" parent="1" vertex="1">
          <mxGeometry x="110" y="340" width="120" height="60" as="geometry" />
        </mxCell>
        <mxCell id="F_MHXSZo8XpEC62Zlxpp-17" style="edgeStyle=orthogonalEdgeStyle;rounded=0;orthogonalLoop=1;jettySize=auto;html=1;startArrow=classic;startFill=1;" parent="1" target="F_MHXSZo8XpEC62Zlxpp-6" edge="1">
          <mxGeometry relative="1" as="geometry">
            <mxPoint x="729.9999999999998" y="369.9999999999999" as="sourcePoint" />
          </mxGeometry>
        </mxCell>
        <mxCell id="F_MHXSZo8XpEC62Zlxpp-6" value="&lt;div&gt;Router Wi-Fi&lt;/div&gt;" style="ellipse;whiteSpace=wrap;html=1;fillColor=#6d8764;fontColor=#ffffff;strokeColor=#3A5431;" parent="1" vertex="1">
          <mxGeometry x="414" y="330" width="120" height="80" as="geometry" />
        </mxCell>
        <mxCell id="ZS0UVqJl61d2Koyx9BBH-8" style="edgeStyle=orthogonalEdgeStyle;rounded=0;orthogonalLoop=1;jettySize=auto;html=1;exitX=0.75;exitY=0;exitDx=0;exitDy=0;entryX=1;entryY=1;entryDx=0;entryDy=0;startArrow=classic;startFill=1;" edge="1" parent="1" source="ZS0UVqJl61d2Koyx9BBH-3" target="F_MHXSZo8XpEC62Zlxpp-6">
          <mxGeometry relative="1" as="geometry" />
        </mxCell>
        <mxCell id="ZS0UVqJl61d2Koyx9BBH-3" value="&lt;div&gt;Kali Linux (atakujący)&lt;/div&gt;" style="rounded=0;whiteSpace=wrap;html=1;fillColor=#e51400;fontColor=#ffffff;strokeColor=#B20000;" vertex="1" parent="1">
          <mxGeometry x="414" y="520" width="136" height="60" as="geometry" />
        </mxCell>
        <mxCell id="ZS0UVqJl61d2Koyx9BBH-7" style="edgeStyle=orthogonalEdgeStyle;rounded=0;orthogonalLoop=1;jettySize=auto;html=1;startArrow=classic;startFill=1;" edge="1" parent="1" source="F_MHXSZo8XpEC62Zlxpp-6">
          <mxGeometry relative="1" as="geometry">
            <mxPoint x="420.00359312880704" y="400.0842712474619" as="sourcePoint" />
            <mxPoint x="423" y="520" as="targetPoint" />
            <Array as="points">
              <mxPoint x="430" y="450" />
              <mxPoint x="423" y="450" />
            </Array>
          </mxGeometry>
        </mxCell>
        <mxCell id="ZS0UVqJl61d2Koyx9BBH-11" style="edgeStyle=orthogonalEdgeStyle;rounded=0;orthogonalLoop=1;jettySize=auto;html=1;exitX=0;exitY=0.5;exitDx=0;exitDy=0;entryX=0;entryY=1;entryDx=0;entryDy=0;startArrow=classic;startFill=1;" edge="1" parent="1" source="F_MHXSZo8XpEC62Zlxpp-6" target="F_MHXSZo8XpEC62Zlxpp-6">
          <mxGeometry relative="1" as="geometry" />
        </mxCell>
        <mxCell id="ZS0UVqJl61d2Koyx9BBH-14" style="edgeStyle=orthogonalEdgeStyle;rounded=0;orthogonalLoop=1;jettySize=auto;html=1;exitX=1;exitY=1;exitDx=0;exitDy=0;entryX=1;entryY=0.5;entryDx=0;entryDy=0;startArrow=classic;startFill=1;" edge="1" parent="1" source="F_MHXSZo8XpEC62Zlxpp-6" target="F_MHXSZo8XpEC62Zlxpp-6">
          <mxGeometry relative="1" as="geometry">
            <Array as="points">
              <mxPoint x="516" y="370" />
            </Array>
          </mxGeometry>
        </mxCell>
        <mxCell id="ZS0UVqJl61d2Koyx9BBH-15" value="Brama sieciowa" style="whiteSpace=wrap;html=1;aspect=fixed;fillColor=#60a917;fontColor=#ffffff;strokeColor=#2D7600;" vertex="1" parent="1">
          <mxGeometry x="730" y="330" width="80" height="80" as="geometry" />
        </mxCell>
        <mxCell id="ZS0UVqJl61d2Koyx9BBH-16" value="Fałszywe odpowiedzi ARP" style="text;whiteSpace=wrap;html=1;rotation=-90;" vertex="1" parent="1">
          <mxGeometry x="350" y="440" width="100" height="40" as="geometry" />
        </mxCell>
        <mxCell id="ZS0UVqJl61d2Koyx9BBH-17" value="Fałszywe odpowiedzi ARP" style="text;whiteSpace=wrap;html=1;rotation=-90;" vertex="1" parent="1">
          <mxGeometry x="440" y="440" width="100" height="40" as="geometry" />
        </mxCell>
      </root>
    </mxGraphModel>
  </diagram>
</mxfile>
